SplineFontDB: 3.0
FontName: MyGaramond
FullName: MyGaramond
FamilyName: MyGaramond
Weight: Regular
Copyright: Created by trashman with FontForge 2.0 (http://fontforge.sf.net)
UComments: "2010-10-15: Created." 
Version: 001.000
ItalicAngle: 0
UnderlinePosition: -100
UnderlineWidth: 50
Ascent: 740
Descent: 260
LayerCount: 3
Layer: 0 0 "Back"  1
Layer: 1 0 "Fore"  0
Layer: 2 0 "backup"  0
NeedsXUIDChange: 1
XUID: [1021 658 797806517 11800223]
OS2Version: 0
OS2_WeightWidthSlopeOnly: 0
OS2_UseTypoMetrics: 1
CreationTime: 1287179752
ModificationTime: 1287379447
OS2TypoAscent: 0
OS2TypoAOffset: 1
OS2TypoDescent: 0
OS2TypoDOffset: 1
OS2TypoLinegap: 0
OS2WinAscent: 0
OS2WinAOffset: 1
OS2WinDescent: 0
OS2WinDOffset: 1
HheadAscent: 0
HheadAOffset: 1
HheadDescent: 0
HheadDOffset: 1
OS2Vendor: 'PfEd'
MarkAttachClasses: 1
DEI: 91125
Encoding: UnicodeBmp
UnicodeInterp: none
NameList: Adobe Glyph List
DisplaySize: -48
AntiAlias: 1
FitToEm: 1
WinInfo: 84 12 4
BeginPrivate: 9
BlueValues 9 [698 713]
OtherBlues 11 [-227 -227]
BlueScale 8 0.039625
BlueShift 1 7
BlueFuzz 1 0
StdHW 4 [26]
StemSnapH 25 [17 21 26 35 43 48 63 78]
StdVW 4 [76]
StemSnapV 4 [76]
EndPrivate
BeginChars: 65537 64

StartChar: a
Encoding: 97 97 0
Width: 394
VWidth: -15
Flags: HWO
HStem: -18 56<83.5 169.144> -16 66<287 346.386> 344 58<144.5 221.786>
VStem: 25 84<42.1104 121.231> 36 74<272.219 327.517> 235 75<73.5469 173.928> 239 81<201 319.391>
LayerCount: 3
Fore
SplineSet
235 179 m 1xb4
 196 166 109 133 109 93 c 0
 109 67 120 38 144 38 c 0
 184 38 231 90 231 90 c 1
 235 179 l 1xb4
162 344 m 0
 126 344 110 324 110 296 c 0
 110 283 98 279 91 274 c 2
 62 255 l 2
 59 253 55 251 51 251 c 0
 40 251 36 261 36 282 c 0
 36 288 44 318 56 328 c 0
 92 356 178 402 207 402 c 0
 242 402 320 380 320 319 c 0xaa
 320 288 310 84 310 80 c 0
 310 61 328 50 336 50 c 0
 346 50 355 60 368 78 c 1
 386 61 l 1
 374 34 338 -16 304 -16 c 0
 270 -16 238 1 235 46 c 0x64
 234 55 232 61 226 54 c 0
 189 16 153 -18 104 -18 c 0
 63 -18 25 16 25 72 c 0
 25 130 90 154 152 174 c 2
 237 201 l 1
 237 201 239 269 239 281 c 0xb2
 239 295 236 307 224 320 c 0
 212 333 193 344 162 344 c 0
EndSplineSet
EndChar

StartChar: b
Encoding: 98 98 1
Width: 485
VWidth: -5
Flags: HW
HStem: -6 41<182.807 315.947> 357 3<145 236> 623 21<7 31.7927> 688 20G<123.5 146>
VStem: 61 25<-13 10.4085> 62 76<78.875 340.307 360.004 617.797> 379 81<120.541 272.739>
LayerCount: 3
Fore
SplineSet
267 407 m 0xf6
 370 407 460 323 460 208 c 0
 460 122 407 68 356 32 c 0
 320 7 285 -6 239 -6 c 0
 186 -6 122 16 113 16 c 0
 91 16 86 -13 86 -13 c 1
 61 -13 l 1xfa
 61 -13 62 49 62 100 c 2
 62 581 l 2
 62 615 43 621 7 623 c 1
 7 644 l 1
 42 657 110 690 137 708 c 1
 146 702 l 1
 145 676 138 573 138 448 c 2
 138 380 l 2
 138 366 137 360 145 360 c 0
 151 360 212 407 267 407 c 0xf6
138 314 m 2xf6
 138 155 l 2
 138 112 157 35 249 35 c 0
 336 35 379 114 379 189 c 0
 379 264 324 357 236 357 c 0
 194 357 138 341 138 314 c 2xf6
EndSplineSet
EndChar

StartChar: c
Encoding: 99 99 2
Width: 434
VWidth: 5
Flags: HW
HStem: -23 71<186.063 305.626> 369 39<169.4 281.126>
VStem: 26 81<126.508 274.111>
LayerCount: 3
Fore
SplineSet
250 408 m 0
 299 408 387 386 387 330 c 0
 387 302 359 286 337 286 c 0
 316 286 305 315 295 333 c 0
 282 354 262 369 229 369 c 0
 147 369 107 282 107 205 c 0
 107 112 185 48 266 48 c 0
 330 48 358 77 386 104 c 1
 405 76 l 1
 405 76 324 -23 222 -23 c 0
 107 -23 26 65 26 168 c 0
 26 257 65 323 121 363 c 0
 157 388 196 408 250 408 c 0
EndSplineSet
EndChar

StartChar: d
Encoding: 100 100 3
Width: 502
VWidth: 0
Flags: HW
HStem: -19 57<184.226 280.291> 22 23<447.382 484> 371 37<186.876 299.696>
VStem: 31 88<110.028 274.265> 345 76<63.2132 326.36 390.004 629.683>
LayerCount: 3
Fore
SplineSet
346 41 m 2x78
 346 43 340 52 330 43 c 0
 296 13 265 -19 206 -19 c 0xb8
 96 -19 31 86 31 176 c 0
 31 289 115 408 256 408 c 0
 281 408 315 398 324 394 c 0
 330 392 335 390 338 390 c 0
 343 390 345 395 345 408 c 2
 345 578 l 2
 345 630 341 627 284 638 c 1
 284 660 l 1
 322 669 387 694 419 714 c 1
 428 708 l 1
 428 514 421 358 421 174 c 2
 421 77 l 2
 421 46 424 41 447 41 c 0
 455 41 473 43 484 45 c 1
 484 22 l 1
 448 15 389 -5 352 -20 c 1
 344 -17 l 1
 346 41 l 2x78
115 206 m 0
 115 113 174 38 245 38 c 0
 290 38 345 76 345 76 c 1
 345 256 l 2
 345 318 303 373 244 373 c 0
 161 373 115 285 115 206 c 0
EndSplineSet
EndChar

StartChar: e
Encoding: 101 101 4
Width: 394
VWidth: -10
Flags: HW
HStem: -20 63<180.804 280.114> 226 27<109.439 274.564> 226 17<108 218.891> 366 32<162.848 249.502>
VStem: 28 77<120.716 223.602> 282 79<257.553 333.787>
LayerCount: 3
Fore
SplineSet
199 -18 m 0
 99 -18 24 79 24 177 c 0
 24 283 92 407 221 407 c 0
 308 407 360 343 360 248 c 2
 360 231 l 1
 103 231 l 1
 102 223 102 215 102 208 c 0
 102 109 169 52 237 52 c 0
 281 52 326 83 344 98 c 1
 344 97 360 81 360 81 c 1
 342 50 278 -18 199 -18 c 0
104 253 m 1
 134 255 212 260 240 262 c 0
 266 264 276 285 276 298 c 0
 276 338 244 370 203 370 c 0
 144 370 112 310 104 253 c 1
EndSplineSet
EndChar

StartChar: f
Encoding: 102 102 5
Width: 334
VWidth: 0
Flags: HW
HStem: -4 32<30 114.396 203.069 301> 339 45<30 119 197 323> 610 81<251.261 335.397>
VStem: 121 74<36.3685 339 384 534.019>
LayerCount: 3
Fore
SplineSet
30 351 m 1
 30 398 l 1
 121 398 l 1
 121 444 125 515 147 560 c 0
 183 635 250 707 315 707 c 0
 323 707 363 705 363 663 c 0
 363 625 342 622 319 622 c 0
 298 622 271 626 256 626 c 0
 201 625 197 567 197 471 c 2
 197 398 l 1
 323 398 l 1
 323 351 l 1
 197 351 l 1
 197 70 l 2
 197 31 219 32 301 28 c 1
 301 -4 l 1
 242 -4 194 0 160 0 c 0
 124 0 79 -4 30 -4 c 1
 30 28 l 1
 102 30 121 33 121 70 c 2
 121 351 l 1
 30 351 l 1
EndSplineSet
EndChar

StartChar: g
Encoding: 103 103 6
Width: 474
VWidth: 0
Flags: HW
LayerCount: 3
Fore
SplineSet
81 -100 m 0
 81 -155 140 -197 202 -197 c 0
 269 -197 356 -163 356 -95 c 0
 356 -34 267 -15 198 -8 c 0
 181 -7 171 -6 156 -6 c 0
 134 -6 124 -13 111 -29 c 0
 94 -49 81 -78 81 -100 c 0
347 366 m 1
 460 366 l 1
 460 322 l 1
 376 321 l 1
 376 321 383 300 383 280 c 0
 383 199 305 136 209 136 c 0
 200 136 190 140 184 136 c 0
 166 125 152 114 152 102 c 0
 152 89 155 76 169 68 c 0
 181 61 200 59 220 58 c 0
 243 57 265 57 284 55 c 0
 353 49 429 18 429 -67 c 0
 429 -169 310 -231 203 -231 c 0
 93 -231 8 -188 8 -108 c 0
 8 -53 73 -26 108 0 c 0
 111 3 113 14 109 16 c 0
 93 26 62 65 62 90 c 0
 62 97 73 103 92 113 c 0
 115 126 144 139 151 143 c 0
 157 146 150 153 145 155 c 0
 87 181 62 224 62 281 c 0
 62 355 139 407 220 407 c 0
 284 407 314 392 347 366 c 1
141 285 m 0
 141 232 172 169 221 169 c 0
 277 169 304 212 304 279 c 0
 304 338 265 376 218 376 c 0
 163 376 141 329 141 285 c 0
EndSplineSet
EndChar

StartChar: h
Encoding: 104 104 7
Width: 507
VWidth: 0
Flags: HW
HStem: -4 26<19 77.1962 172.77 224 297 350.397 443.174 490> 344 53<233.628 328.681> 639 25<24 66.0125>
VStem: 85 87<459.902 637.112> 88 76<28.2302 313.695 341.464 618.119> 358 76<25.9661 314.66>
LayerCount: 3
Fore
SplineSet
164 287 m 2xec
 164 139 l 2
 164 113 164 87 165 60 c 0
 166 30 181 22 224 22 c 1
 224 -4 l 1
 183 -4 162 0 128 0 c 0
 92 0 57 -4 19 -4 c 1
 19 22 l 1
 62 22 86 28 87 60 c 0
 88 94 88 119 88 139 c 2
 88 344 l 2xec
 88 405 86 574 85 612 c 0
 84 638 67 639 24 639 c 1
 24 664 l 1
 74 677 112 690 163 718 c 1
 172 710 l 1xf4
 165 604 164 605 164 376 c 2
 164 342 l 2
 164 326 175 331 181 337 c 0
 206 360 254 397 307 397 c 0
 384 397 434 345 434 268 c 2
 434 130 l 2
 434 106 434 82 435 68 c 0
 438 25 450 22 490 22 c 1
 490 -4 l 1
 467 -4 436 0 402 0 c 0
 377 0 349 -4 297 -4 c 1
 297 22 l 1
 341 22 356 27 357 60 c 0
 358 96 358 120 358 140 c 2
 358 258 l 2
 358 314 316 344 268 344 c 0
 220 344 164 304 164 287 c 2xec
EndSplineSet
EndChar

StartChar: i
Encoding: 105 105 8
Width: 256
VWidth: 0
Flags: HW
HStem: -4 26<25 77.4195 184.865 234> 331 22<38 79.1658> 553 106<89.9539 174.046>
VStem: 80 104<562.913 649.764> 95 76<32.5099 323.862>
LayerCount: 3
Fore
SplineSet
95 73 m 2xe8
 95 234 l 2
 95 263 95 279 93 300 c 0
 91 322 67 329 38 331 c 1
 38 353 l 1
 82 362 129 381 164 397 c 1
 174 389 l 1
 172 332 171 323 171 121 c 2
 171 71 l 2
 171 45 175 26 234 22 c 1
 234 -4 l 1
 194 -4 166 0 133 0 c 0
 97 0 60 -4 25 -4 c 1
 25 22 l 1
 91 30 95 43 95 73 c 2xe8
80 607 m 0xf0
 80 637 102 659 132 659 c 0
 162 659 184 637 184 607 c 0
 184 577 162 553 132 553 c 0
 102 553 80 577 80 607 c 0xf0
EndSplineSet
EndChar

StartChar: j
Encoding: 106 106 9
Width: 266
VWidth: 0
Flags: HW
HStem: 554 106<103.954 188.046>
VStem: 94 104<563.913 650.764> 103 91<129.663 318.691> 103 76<-103.928 317.784>
LayerCount: 3
Fore
SplineSet
94 608 m 0xc0
 94 638 116 660 146 660 c 0
 176 660 198 638 198 608 c 0
 198 578 176 554 146 554 c 0
 116 554 94 578 94 608 c 0xc0
103 72 m 2x90
 103 289 l 2
 103 300 103 316 57 326 c 1
 57 343 l 1
 106 358 144 378 184 398 c 1
 194 390 l 1xa0
 186 341 179 273 179 144 c 2
 179 47 l 2
 179 -76 174 -150 3 -238 c 1
 -13 -215 l 1
 39 -179 66 -148 86 -111 c 0
 102 -81 103 -8 103 72 c 2x90
EndSplineSet
EndChar

StartChar: k
Encoding: 107 107 10
Width: 531
VWidth: 0
Flags: HW
HStem: -4 26<35 94.6069 188.77 240 291 344.804 460.328 508> 368 26<262 313.327 394.521 457> 619 16<47 69.3949>
VStem: 106 74<28.7154 189.486 208.002 608.648>
LayerCount: 3
Fore
SplineSet
317 346 m 0
 317 362 300 369 262 369 c 1
 262 395 l 1
 286 395 336 391 361 391 c 0
 388 391 449 395 462 395 c 1
 462 369 l 1
 442 367 403 372 376 345 c 2
 298 268 l 2
 289 260 285 256 285 251 c 0
 285 246 289 241 296 232 c 0
 334 185 384 117 438 54 c 0
 456 34 456 26 512 22 c 1
 512 -4 l 1
 475 -4 432 0 398 0 c 0
 373 0 329 -4 291 -4 c 1
 291 22 l 1
 329 22 345 31 345 47 c 0
 345 60 277 140 242 185 c 0
 233 196 227 203 221 203 c 0
 216 203 210 197 199 191 c 0
 182 181 181 178 181 170 c 2
 181 65 l 2
 181 35 199 22 242 22 c 1
 242 -4 l 1
 206 -4 169 0 144 0 c 0
 108 0 73 -4 35 -4 c 1
 35 22 l 1
 78 22 105 33 105 65 c 2
 105 576 l 2
 105 600 90 623 45 627 c 1
 45 647 l 1
 103 661 128 679 172 707 c 1
 184 699 l 1
 181 660 181 609 181 560 c 2
 181 232 l 2
 181 212 181 214 184 214 c 0
 192 214 250 267 264 280 c 0
 293 308 317 333 317 346 c 0
EndSplineSet
EndChar

StartChar: l
Encoding: 108 108 11
Width: 257
VWidth: 0
Flags: HW
HStem: -4 26<25 78.4058 186.333 239> 635 25<35 69.7985>
VStem: 93 76<32.1519 334.151>
LayerCount: 3
Fore
SplineSet
169 96 m 2
 169 71 l 2
 169 50 178 22 239 22 c 1
 239 -4 l 1
 219 -4 164 0 131 0 c 0
 104 0 51 -4 25 -4 c 1
 25 22 l 1
 87 22 93 46 93 80 c 2
 93 513 l 2
 93 534 93 566 92 584 c 0
 91 620 87 635 35 635 c 1
 35 660 l 1
 82 675 120 692 170 716 c 1
 178 709 l 1
 170 630 169 217 169 96 c 2
EndSplineSet
EndChar

StartChar: m
Encoding: 109 109 12
Width: 798
VWidth: 0
Flags: HW
HStem: -4 26<20 72.4195 179.865 229 300 348.252 457.946 509 570 626.925 729.865 779> 331 22<33 64.7284> 340 61<238.33 340.689 508.476 617.879>
VStem: 90 76<32.5099 311.468> 365 76<32.8027 308.724> 640 76<31.1174 318.263>
CounterMasks: 1 1c
LayerCount: 3
Fore
SplineSet
365 241 m 2xbc
 365 308 338 340 277 340 c 0xbc
 242 340 211 331 189 313 c 0
 168 297 166 270 166 237 c 2
 166 71 l 2
 166 45 170 26 229 22 c 1
 229 -4 l 1
 202 -4 161 0 128 0 c 0
 92 0 38 -4 20 -4 c 1
 20 22 l 1
 86 30 90 43 90 73 c 2
 90 234 l 2
 90 263 90 279 88 300 c 0
 86 322 62 329 33 331 c 1
 33 353 l 1xdc
 59 360 126 388 161 406 c 1
 169 400 l 1
 168 386 167 364 167 347 c 0
 167 338 169 334 172 334 c 0
 177 334 185 343 191 347 c 0
 228 373 259 401 313 401 c 0
 368 401 412 379 426 334 c 0
 429 324 431 319 434 319 c 0
 438 319 443 327 453 336 c 0
 483 363 525 401 579 401 c 0
 690 401 716 333 716 258 c 2
 716 71 l 2
 716 45 720 26 779 22 c 1
 779 -4 l 1
 739 -4 711 0 678 0 c 0
 642 0 605 -4 570 -4 c 1
 570 22 l 1
 636 30 640 36 640 73 c 2
 640 254 l 2
 640 288 634 340 552 340 c 0
 520 340 492 332 465 311 c 0
 445 295 441 275 441 254 c 2
 441 71 l 2
 441 45 450 26 509 22 c 1
 509 -4 l 1
 469 -4 436 0 403 0 c 0
 367 0 335 -4 300 -4 c 1
 300 22 l 1
 363 32 365 43 365 73 c 2
 365 241 l 2xbc
EndSplineSet
EndChar

StartChar: n
Encoding: 110 110 13
Width: 526
VWidth: 0
Flags: HW
LayerCount: 3
Fore
SplineSet
441 254 m 2
 441 71 l 2
 441 45 450 26 509 22 c 1
 509 -4 l 1
 469 -4 436 0 403 0 c 0
 367 0 330 -4 295 -4 c 1
 295 22 l 1
 362 30 365 43 365 73 c 2
 365 241 l 2xbc
 365 306 342 340 277 340 c 0xbc
 242 340 210 321 189 309 c 0
 166 296 166 292 166 270 c 2
 166 71 l 2
 166 45 170 26 229 22 c 1
 229 -4 l 1
 202 -4 161 0 128 0 c 0
 92 0 38 -4 20 -4 c 1
 20 22 l 1
 86 30 90 43 90 73 c 2
 90 300 l 2
 90 330 86 327 33 331 c 1
 33 353 l 1xdc
 59 360 126 388 161 406 c 1
 169 400 l 1
 168 386 162 346 162 342 c 0
 162 330 160 326 168 326 c 0
 168 326 185 340 190 344 c 0
 218 368 268 401 313 401 c 0
 401 401 441 356 441 254 c 2
EndSplineSet
EndChar

StartChar: o
Encoding: 111 111 14
Width: 468
VWidth: 0
Flags: HW
HStem: -20 36<171.809 279.322> 372 35<168.728 281.6>
VStem: 23 87<92.4123 279.068> 344 93<102.437 288.165>
LayerCount: 3
Fore
SplineSet
437 193 m 0
 437 69 324 -20 228 -20 c 0
 114 -20 23 68 23 182 c 0
 23 302 112 407 233 407 c 0
 352 407 437 305 437 193 c 0
225 16 m 0
 312 16 344 117 344 203 c 0
 344 284 307 372 228 372 c 0
 138 372 110 282 110 202 c 0
 110 118 142 16 225 16 c 0
EndSplineSet
EndChar

StartChar: p
Encoding: 112 112 15
Width: 282
VWidth: 0
Flags: HW
LayerCount: 3
Fore
SplineSet
91 254 m 0
 91 282 113 304 141 304 c 0
 169 304 191 282 191 254 c 0
 191 226 169 204 141 204 c 0
 113 204 91 226 91 254 c 0
EndSplineSet
EndChar

StartChar: q
Encoding: 113 113 16
Width: 282
VWidth: 0
Flags: HW
LayerCount: 3
Fore
SplineSet
91 254 m 0
 91 282 113 304 141 304 c 0
 169 304 191 282 191 254 c 0
 191 226 169 204 141 204 c 0
 113 204 91 226 91 254 c 0
EndSplineSet
EndChar

StartChar: r
Encoding: 114 114 17
Width: 282
VWidth: 0
Flags: HW
LayerCount: 3
Fore
SplineSet
91 254 m 0
 91 282 113 304 141 304 c 0
 169 304 191 282 191 254 c 0
 191 226 169 204 141 204 c 0
 113 204 91 226 91 254 c 0
EndSplineSet
EndChar

StartChar: s
Encoding: 115 115 18
Width: 282
VWidth: 0
Flags: HW
LayerCount: 3
Fore
SplineSet
91 254 m 0
 91 282 113 304 141 304 c 0
 169 304 191 282 191 254 c 0
 191 226 169 204 141 204 c 0
 113 204 91 226 91 254 c 0
EndSplineSet
EndChar

StartChar: t
Encoding: 116 116 19
Width: 282
VWidth: 0
Flags: HW
LayerCount: 3
Fore
SplineSet
91 254 m 0
 91 282 113 304 141 304 c 0
 169 304 191 282 191 254 c 0
 191 226 169 204 141 204 c 0
 113 204 91 226 91 254 c 0
EndSplineSet
EndChar

StartChar: u
Encoding: 117 117 20
Width: 282
VWidth: 0
Flags: HW
LayerCount: 3
Fore
SplineSet
91 254 m 0
 91 282 113 304 141 304 c 0
 169 304 191 282 191 254 c 0
 191 226 169 204 141 204 c 0
 113 204 91 226 91 254 c 0
EndSplineSet
EndChar

StartChar: v
Encoding: 118 118 21
Width: 282
VWidth: 0
Flags: HW
LayerCount: 3
Fore
SplineSet
91 254 m 0
 91 282 113 304 141 304 c 0
 169 304 191 282 191 254 c 0
 191 226 169 204 141 204 c 0
 113 204 91 226 91 254 c 0
EndSplineSet
EndChar

StartChar: w
Encoding: 119 119 22
Width: 282
VWidth: 0
Flags: HW
LayerCount: 3
Fore
SplineSet
91 254 m 0
 91 282 113 304 141 304 c 0
 169 304 191 282 191 254 c 0
 191 226 169 204 141 204 c 0
 113 204 91 226 91 254 c 0
EndSplineSet
EndChar

StartChar: x
Encoding: 120 120 23
Width: 282
VWidth: 0
Flags: HW
LayerCount: 3
Fore
SplineSet
91 254 m 0
 91 282 113 304 141 304 c 0
 169 304 191 282 191 254 c 0
 191 226 169 204 141 204 c 0
 113 204 91 226 91 254 c 0
EndSplineSet
EndChar

StartChar: y
Encoding: 121 121 24
Width: 282
VWidth: 0
Flags: HW
LayerCount: 3
Fore
SplineSet
91 254 m 0
 91 282 113 304 141 304 c 0
 169 304 191 282 191 254 c 0
 191 226 169 204 141 204 c 0
 113 204 91 226 91 254 c 0
EndSplineSet
EndChar

StartChar: z
Encoding: 122 122 25
Width: 282
VWidth: 0
Flags: HW
LayerCount: 3
Fore
SplineSet
91 254 m 0
 91 282 113 304 141 304 c 0
 169 304 191 282 191 254 c 0
 191 226 169 204 141 204 c 0
 113 204 91 226 91 254 c 0
EndSplineSet
EndChar

StartChar: zero
Encoding: 48 48 52
Width: 282
VWidth: 0
Flags: HW
LayerCount: 3
Fore
SplineSet
91 254 m 0
 91 282 113 304 141 304 c 0
 169 304 191 282 191 254 c 0
 191 226 169 204 141 204 c 0
 113 204 91 226 91 254 c 0
EndSplineSet
EndChar

StartChar: one
Encoding: 49 49 53
Width: 282
VWidth: 0
Flags: HW
LayerCount: 3
Fore
SplineSet
91 254 m 0
 91 282 113 304 141 304 c 0
 169 304 191 282 191 254 c 0
 191 226 169 204 141 204 c 0
 113 204 91 226 91 254 c 0
EndSplineSet
EndChar

StartChar: two
Encoding: 50 50 54
Width: 282
VWidth: 0
Flags: HW
LayerCount: 3
Fore
SplineSet
91 254 m 0
 91 282 113 304 141 304 c 0
 169 304 191 282 191 254 c 0
 191 226 169 204 141 204 c 0
 113 204 91 226 91 254 c 0
EndSplineSet
EndChar

StartChar: three
Encoding: 51 51 55
Width: 282
VWidth: 0
Flags: HW
LayerCount: 3
Fore
SplineSet
91 254 m 0
 91 282 113 304 141 304 c 0
 169 304 191 282 191 254 c 0
 191 226 169 204 141 204 c 0
 113 204 91 226 91 254 c 0
EndSplineSet
EndChar

StartChar: four
Encoding: 52 52 56
Width: 282
VWidth: 0
Flags: HW
LayerCount: 3
Fore
SplineSet
91 254 m 0
 91 282 113 304 141 304 c 0
 169 304 191 282 191 254 c 0
 191 226 169 204 141 204 c 0
 113 204 91 226 91 254 c 0
EndSplineSet
EndChar

StartChar: five
Encoding: 53 53 57
Width: 282
VWidth: 0
Flags: HW
LayerCount: 3
Fore
SplineSet
91 254 m 0
 91 282 113 304 141 304 c 0
 169 304 191 282 191 254 c 0
 191 226 169 204 141 204 c 0
 113 204 91 226 91 254 c 0
EndSplineSet
EndChar

StartChar: six
Encoding: 54 54 58
Width: 282
VWidth: 0
Flags: HW
LayerCount: 3
Fore
SplineSet
91 254 m 0
 91 282 113 304 141 304 c 0
 169 304 191 282 191 254 c 0
 191 226 169 204 141 204 c 0
 113 204 91 226 91 254 c 0
EndSplineSet
EndChar

StartChar: seven
Encoding: 55 55 59
Width: 282
VWidth: 0
Flags: HW
LayerCount: 3
Fore
SplineSet
91 254 m 0
 91 282 113 304 141 304 c 0
 169 304 191 282 191 254 c 0
 191 226 169 204 141 204 c 0
 113 204 91 226 91 254 c 0
EndSplineSet
EndChar

StartChar: eight
Encoding: 56 56 60
Width: 282
VWidth: 0
Flags: HW
LayerCount: 3
Fore
SplineSet
91 254 m 0
 91 282 113 304 141 304 c 0
 169 304 191 282 191 254 c 0
 191 226 169 204 141 204 c 0
 113 204 91 226 91 254 c 0
EndSplineSet
EndChar

StartChar: nine
Encoding: 57 57 61
Width: 282
VWidth: 0
Flags: HW
LayerCount: 3
Fore
SplineSet
91 254 m 0
 91 282 113 304 141 304 c 0
 169 304 191 282 191 254 c 0
 191 226 169 204 141 204 c 0
 113 204 91 226 91 254 c 0
EndSplineSet
EndChar

StartChar: f.001
Encoding: 65536 -1 63
Width: 334
VWidth: 0
Flags: W
HStem: -4 32<42 116.978 205.215 306> 339 45<42 119 197 323> 636 46<253.068 357.323>
VStem: 121 74<37.7822 339 384 528.216>
LayerCount: 3
Fore
SplineSet
195 384 m 1
 323 384 l 1
 323 339 l 1
 197 339 l 1
 197 236 l 2
 197 178 195 129 195 86 c 2
 195 70 l 2
 195 33 224 32 306 28 c 1
 306 -4 l 1
 247 -4 194 0 160 0 c 0
 124 0 91 -4 42 -4 c 1
 42 28 l 1
 113 30 121 32 121 70 c 2
 121 86 l 2
 121 129 119 178 119 236 c 2
 119 339 l 1
 42 339 l 1
 42 384 l 1
 121 384 l 1
 121 512 154 575 206 626 c 0
 241 660 285 682 345 682 c 0
 388 682 446 668 446 625 c 0
 446 601 426 588 411 588 c 0
 367 588 357 636 298 636 c 0
 234 636 195 580 195 457 c 2
 195 384 l 1
EndSplineSet
Layer: 2
SplineSet
195 344 m 5
 195 70 l 6
 195 31 227 32 309 28 c 5
 309 -4 l 5
 250 -4 194 0 160 0 c 4
 124 0 78 -4 40 -4 c 5
 40 28 l 5
 112 30 121 32 121 70 c 6
 121 344 l 5
 40 344 l 5
 40 389 l 5
 121 389 l 5
 121 555 201 682 345 682 c 4
 388 682 446 668 446 625 c 4
 446 601 426 588 411 588 c 4
 367 588 357 636 298 636 c 4
 242 636 195 585 195 449 c 6
 195 389 l 5
 323 389 l 5
 323 344 l 5
 195 344 l 5
EndSplineSet
EndChar
